<?xml version="1.0" encoding="utf-8"?>
<!-- Generator: Adobe Illustrator 22.0.1, SVG Export Plug-In . SVG Version: 6.00 Build 0)  -->
<svg version="1.1" id="Layer_1" xmlns="http://www.w3.org/2000/svg" xmlns:xlink="http://www.w3.org/1999/xlink" x="0px" y="0px"
	 viewBox="0 0 1600 1200" enable-background="new 0 0 1600 1200" xml:space="preserve">
<g>
	<g>
		<path fill="#102028" d="M631.4,722.6v-16.7c0-2.2-1.2-2.9-2.4-2.9h-2.5v19.6h-4.7V677h8.5c3.1,0,5.7,2.5,5.7,5.7v14.1
			c0,0,0.2,3.6-1.7,4c1.8,0.9,1.7,4.3,1.7,4.3v17.4H631.4z M629,698.6c1.2,0,2.4-0.5,2.4-2.6v-12.2c0-1.7-1.2-2.3-2.4-2.3h-2.5v17.2
			H629z"/>
		<path fill="#102028" d="M676.1,722.6h-5.1l-4.1-31.4l-4.1,31.4h-5.1l6.9-45.6h2.5c2,0,2.3,1.2,2.5,2.5L676.1,722.6z"/>
		<path fill="#102028" d="M700.3,722.6h-5.4l7.2-24.2L696,677h3.6c0.2,0,1.4,0,1.8,1.6l3.3,12.1l3.1-12.1c0.5-1.6,1.6-1.6,1.8-1.6
			h3.6l-5.9,21.5l6.8,24.1h-5.1l-4.2-16.5L700.3,722.6z"/>
		<path fill="#102028" d="M751.6,722.6h-5.1l-4.1-31.4l-4.1,31.4h-5.1L740,677h2.5c2,0,2.3,1.2,2.5,2.5L751.6,722.6z"/>
		<path fill="#102028" d="M830,722.6h-4.6v-23.5l-3.5,15.6h-1.4c-2.7,0-3.3-2.7-3.5-3.7l-2.7-11.9v23.5h-4.6V677h2.9
			c1.8,0,2.1,1.7,2.1,1.7l5.4,26.2l5.1-26.2c0.1-0.2,0.4-1.6,2.1-1.6h2.9V722.6z"/>
		<path fill="#102028" d="M868.7,718c-0.5,1.2-1.3,3-1.5,3.4c-0.3,0.6-1,1.2-2.5,1.2h-10.4v-44.3c0.1-0.7,0.7-1.3,1.4-1.3h12.2
			l-1.6,3.4c-0.3,0.6-1,1.3-2.5,1.3h-3.8c-0.7,0-1.1,0.5-1.1,1.1v13.5h7c-0.5,1.2-1.3,3.1-1.5,3.5c-0.3,0.6-1,1.2-2.5,1.2h-2
			c-0.6,0-1.1,0.5-1.1,1.1V718H868.7z"/>
		<path fill="#102028" d="M900.2,677c3.2,0,5.7,2.5,5.8,5.7v34.1c-0.1,3.2-2.6,5.7-5.8,5.7h-9V677H900.2z M901.4,684.1
			c0-1.7-1.2-2.3-2.5-2.3h-3.1V718h3.1c1.3,0,2.5-0.7,2.5-2.4V684.1z"/>
		<path fill="#102028" d="M934.8,677c1.4,0,1.9,1,1.9,1.8v43.7h-3.3c-1.1,0-1.3-0.7-1.4-1V677H934.8z"/>
		<path fill="#102028" d="M978.1,722.6H973l-4.1-31.4l-4.1,31.4h-5.1l6.9-45.6h2.5c2,0,2.3,1.2,2.5,2.5L978.1,722.6z"/>
	</g>
	<g>
		<path fill="#102028" d="M883.5,552.9L862.6,532v24.6c0,8.8-7.2,16-16,16v-38l-20,24.9l-20-24.9v21.2c-3.8-6.2-9.2-11.3-16-13.7
			v-41.5c4.9,0,9.3,2.2,12.3,5.7l23.7,28.7l17.7-21.3l-30.6-30.6c-7.6-7.6-19.8-7.6-27.4,0l-69.8,69.8c-7.6,7.6-7.6,19.8,0,27.4
			l69.8,69.8c7.6,7.6,19.8,7.6,27.4,0l69.8-69.8C891,572.7,891,560.4,883.5,552.9z M785.7,632.2l-50.8-51.1h41.2
			c4.3,0,7.8-3.5,7.8-7.8c0-4.3-3.5-7.8-7.8-7.8h-18.3c-11.5,0-20.9-9.4-20.9-20.9h39.1c15.8,0,28.7,12.9,28.7,28.7
			c0,13-9.1,24.3-21,27.7l31.4,31.3C807,640.5,793.8,640.5,785.7,632.2z"/>
	</g>
</g>
</svg>
